<svg height='100px' width='100px' fill="#008000" xmlns="http://www.w3.org/2000/svg" xmlns:xlink="http://www.w3.org/1999/xlink" version="1.1" x="0px" y="0px" viewBox="0 0 100 100" enable-background="new 0 0 100 100" xml:space="preserve">
    <g>
        <path d="M56.25,52.5c-1.592-1.592-3.686-1.661-5-1.181V40c0-11.25,8.049-13.75,8.049-13.75c-6.25,6.25-6.25,12.5-6.25,12.5   c15,0,13.125-18.75,13.125-18.75C48.94,20,48.095,30.592,48.053,37.143C45.717,33.202,40.682,30,30,30c0,0,0,15,15,15   c0,0,0-5-6.799-10c0,0,9.299,2.5,9.299,12.5v3.75c0,0-2.168-0.791-3.75,0c-2.5,1.25-3.959,2.068-5,2.5   c-1.079,0.447-3.263,0.098-3.666,0.957c1.445,1.169,3.039,2.158,4.732,2.966c2.848,1.058,6.393,2.036,9.062,2.271   C49.253,59.961,49.621,60,50,60c0.597,0,1.183-0.046,1.769-0.089c0.389-0.032,0.834-0.077,1.315-0.135   c4.371-0.571,8.369-2.324,11.662-4.942C63.892,54.281,61.057,52.5,60,52.5C58.75,52.5,57.5,53.75,56.25,52.5z"></path>
        <path d="M50,5C32.769,5,18.75,19.019,18.75,36.25c0,0.664,0.028,1.323,0.069,1.98c0.018,0.298,0.043,0.596,0.068,0.896   c0.019,0.198,0.038,0.398,0.06,0.596c2.396,23.884,28.037,53.142,29.18,54.434C48.603,94.692,49.285,95,50,95   s1.397-0.308,1.873-0.845c1.143-1.292,26.784-30.549,29.18-54.434c0.021-0.198,0.041-0.398,0.06-0.596   c0.025-0.3,0.051-0.598,0.068-0.896c0.041-0.657,0.069-1.316,0.069-1.98C81.25,19.019,67.231,5,50,5z M50,62.5   c-14.497,0-26.25-11.753-26.25-26.25S35.503,10,50,10s26.25,11.753,26.25,26.25S64.497,62.5,50,62.5z"></path>
    </g>
</svg>